<?xml version="1.0" encoding="utf-8"?>
<!-- Generator: Adobe Illustrator 19.0.0, SVG Export Plug-In . SVG Version: 6.00 Build 0)  -->
<svg version="1.1" id="Layer_1" xmlns="http://www.w3.org/2000/svg" xmlns:xlink="http://www.w3.org/1999/xlink" x="0px" y="0px"
	 viewBox="-751 500.5 416.5 80.5" style="enable-background:new -751 500.5 416.5 80.5;" xml:space="preserve">
<style type="text/css">
	.st0{enable-background:new    ;}
	.st1{fill:#9D9D9D;}
	.st2{fill:#439F47;}
	.st3{fill:#FCD735;}
</style>
<g id="XMLID_1_">
	<g class="st0">
		<path class="st1" d="M-739,569.4c-1.6-1.5-2.7-3.5-3.1-6.1c-0.4-2.6-0.7-6.3-0.7-11.1c0-2.4-0.3-4.3-0.9-5.5
			c-0.6-1.3-1.5-2.4-2.9-3.3l-0.3-0.2c-0.6-0.4-1-0.8-1.3-1.1c-0.2-0.4-0.3-0.8-0.3-1.3v-0.8c0-0.5,0.1-1,0.3-1.3
			c0.2-0.4,0.6-0.7,1.3-1.1l0.4-0.3c1.3-0.9,2.2-2,2.8-3.3c0.6-1.3,0.9-3.1,0.9-5.5c0-4.7,0.2-8.4,0.7-11.1c0.4-2.6,1.5-4.7,3.1-6.1
			c1.6-1.5,4.1-2.2,7.5-2.2h0.3c0.4,0,0.8,0.1,1.1,0.4c0.3,0.3,0.4,0.6,0.4,1.1v0.9c0,0.4-0.1,0.8-0.4,1.1c-0.3,0.3-0.6,0.4-1.1,0.4
			h-0.3c-2.2,0-3.9,0.6-4.9,1.7c-1,1.1-1.6,2.8-1.9,5s-0.4,5.6-0.4,10.3c0,2.6-0.4,4.7-1.2,6.4c-0.8,1.7-2.1,3.1-3.8,4.1
			c1.7,1,3,2.4,3.8,4.1c0.8,1.7,1.2,3.8,1.2,6.4c0,4.6,0.1,8.1,0.4,10.3s0.9,3.9,1.9,5c1,1.1,2.6,1.7,4.9,1.7h0.3
			c0.4,0,0.8,0.1,1.1,0.4s0.4,0.6,0.4,1.1v0.9c0,0.4-0.1,0.8-0.4,1.1s-0.6,0.4-1.1,0.4h-0.3C-734.9,571.6-737.4,570.8-739,569.4z"/>
	</g>
	<g class="st0">
		<path class="st2" d="M-692.2,549.5c-0.3,1.8-0.9,3.4-1.8,4.9c-0.8,1.5-1.9,2.8-3.2,3.9c-1.3,1.1-2.8,2-4.6,2.6
			c-1.7,0.6-3.7,0.9-5.8,0.9c-2.3,0-4.4-0.4-6.4-1.1c-2-0.7-3.8-1.8-5.3-3.2c-1.5-1.4-2.7-3.1-3.6-5.2c-0.9-2-1.3-4.4-1.3-7v-0.8
			c0-2.6,0.4-4.9,1.3-7c0.9-2.1,2.1-3.8,3.6-5.3c1.5-1.4,3.3-2.5,5.3-3.3c2-0.8,4.1-1.2,6.4-1.2c2,0,3.9,0.3,5.7,0.9
			c1.7,0.6,3.3,1.5,4.6,2.6c1.3,1.1,2.4,2.4,3.3,3.9c0.8,1.5,1.4,3.2,1.7,4.9l-5.1,1.2c-0.1-1.1-0.4-2.2-0.9-3.3
			c-0.5-1.1-1.2-2-2-2.8c-0.8-0.8-1.9-1.4-3.1-1.9c-1.2-0.5-2.6-0.7-4.2-0.7c-1.6,0-3,0.3-4.4,0.9c-1.4,0.6-2.6,1.4-3.6,2.5
			c-1,1.1-1.9,2.3-2.4,3.8c-0.6,1.5-0.9,3.1-0.9,4.8v0.8c0,1.8,0.3,3.5,0.9,4.9c0.6,1.5,1.4,2.7,2.4,3.7s2.3,1.8,3.6,2.3
			c1.4,0.5,2.9,0.8,4.5,0.8c1.6,0,3-0.2,4.2-0.7c1.2-0.5,2.2-1.1,3.1-2c0.8-0.8,1.5-1.7,2-2.8c0.5-1,0.8-2.1,1-3.3L-692.2,549.5z"/>
		<path class="st2" d="M-652.1,545.2c0,2.7-0.4,5.1-1.3,7.1c-0.9,2.1-2.1,3.8-3.5,5.2c-1.5,1.4-3.2,2.5-5.2,3.2
			c-2,0.7-4,1.1-6.1,1.1c-2.2,0-4.2-0.4-6.2-1.1c-1.9-0.7-3.7-1.8-5.1-3.2c-1.5-1.4-2.7-3.1-3.5-5.2c-0.9-2.1-1.3-4.4-1.3-7.1v-0.8
			c0-2.6,0.4-5,1.3-7.1c0.9-2.1,2.1-3.8,3.6-5.2c1.5-1.4,3.2-2.5,5.2-3.3c2-0.7,4-1.1,6.1-1.1c2.1,0,4.2,0.4,6.1,1.1
			c2,0.7,3.7,1.8,5.2,3.3s2.7,3.2,3.6,5.2c0.9,2.1,1.3,4.4,1.3,7.1V545.2z M-668.3,557c1.6,0,3-0.3,4.3-0.8c1.3-0.5,2.5-1.3,3.5-2.4
			c1-1,1.8-2.3,2.3-3.7c0.6-1.5,0.8-3.1,0.8-4.9v-0.8c0-1.7-0.3-3.3-0.8-4.8c-0.6-1.5-1.3-2.7-2.3-3.7c-1-1-2.2-1.9-3.5-2.4
			c-1.3-0.6-2.8-0.9-4.3-0.9c-1.5,0-2.9,0.3-4.3,0.9c-1.3,0.6-2.5,1.4-3.5,2.4c-1,1-1.8,2.3-2.3,3.7c-0.6,1.5-0.8,3-0.8,4.8v0.8
			c0,1.8,0.3,3.5,0.8,4.9c0.6,1.5,1.3,2.7,2.3,3.7c1,1,2.2,1.8,3.5,2.4C-671.3,556.8-669.9,557-668.3,557z"/>
		<path class="st2" d="M-617.8,556h-0.8c-0.5,1-1.2,1.9-2,2.6c-0.8,0.7-1.7,1.3-2.6,1.8c-0.9,0.5-1.9,0.8-3,1.1c-1,0.2-2,0.4-3,0.4
			c-2.2,0-4.2-0.4-6-1.1c-1.9-0.7-3.5-1.8-4.9-3.2c-1.4-1.4-2.5-3.1-3.3-5.2c-0.8-2.1-1.2-4.4-1.2-7.1v-1c0-2.6,0.4-4.9,1.2-7
			c0.8-2.1,1.9-3.8,3.3-5.2c1.4-1.4,3-2.5,4.9-3.2c1.9-0.7,3.8-1.1,5.9-1.1c2.2,0,4.3,0.5,6.2,1.5c1.9,1,3.4,2.5,4.5,4.5h0.8v-18.3
			h5.1v45.5h-5.1V556z M-628.6,557c1.5,0,2.9-0.3,4.2-0.8c1.3-0.6,2.4-1.4,3.4-2.4s1.7-2.3,2.3-3.7c0.6-1.5,0.8-3.1,0.8-4.8v-0.8
			c0-1.7-0.3-3.3-0.8-4.8c-0.6-1.5-1.3-2.7-2.3-3.7s-2.1-1.9-3.4-2.4c-1.3-0.6-2.7-0.9-4.2-0.9c-1.5,0-2.9,0.3-4.3,0.8
			c-1.3,0.6-2.5,1.4-3.4,2.4s-1.7,2.3-2.3,3.7c-0.5,1.4-0.8,3-0.8,4.7v1c0,1.8,0.3,3.4,0.8,4.9c0.5,1.4,1.3,2.7,2.3,3.7
			c1,1,2.1,1.8,3.4,2.3C-631.6,556.8-630.2,557-628.6,557z"/>
		<path class="st2" d="M-599.3,546.4c0.1,3.2,1.1,5.8,3,7.7c1.9,2,4.5,2.9,7.8,2.9c1.5,0,2.8-0.2,4-0.5c1.1-0.3,2.1-0.8,2.9-1.4
			c0.8-0.6,1.5-1.3,2-2.1c0.5-0.8,0.9-1.7,1.2-2.6l4.8,1.3c-0.9,3-2.6,5.4-5,7.3c-2.4,1.9-5.8,2.8-9.9,2.8c-2.3,0-4.4-0.4-6.3-1.2
			c-1.9-0.8-3.6-1.9-5-3.4c-1.4-1.5-2.5-3.2-3.3-5.3c-0.8-2-1.2-4.3-1.2-6.8v-1.6c0-2.3,0.4-4.4,1.2-6.3c0.8-2,1.9-3.6,3.3-5
			c1.4-1.4,3.1-2.5,5-3.3c1.9-0.8,4-1.2,6.3-1.2c2.6,0,4.9,0.5,6.9,1.5c1.9,1,3.5,2.2,4.7,3.6s2.1,3,2.7,4.7
			c0.6,1.7,0.9,3.3,0.9,4.7v4.2H-599.3z M-588.5,532.6c-1.4,0-2.8,0.2-4,0.7c-1.2,0.5-2.3,1.1-3.3,1.9c-0.9,0.8-1.7,1.8-2.3,2.9
			c-0.6,1.1-1,2.3-1.1,3.6h20.8c-0.1-1.4-0.4-2.6-1-3.8c-0.6-1.1-1.3-2.1-2.3-2.9c-0.9-0.8-2-1.4-3.2-1.8
			C-586,532.8-587.3,532.6-588.5,532.6z"/>
	</g>
	<g class="st0">
		<path class="st1" d="M-557.7,511.1c1.6,1.5,2.7,3.5,3.1,6.1c0.4,2.6,0.7,6.3,0.7,11.1c0,2.4,0.3,4.3,0.9,5.5
			c0.6,1.3,1.5,2.4,2.9,3.3l0.3,0.2c0.6,0.4,1,0.8,1.3,1.1c0.2,0.4,0.3,0.8,0.3,1.3v0.8c0,0.5-0.1,1-0.3,1.3
			c-0.2,0.4-0.6,0.7-1.3,1.1l-0.4,0.3c-1.3,0.9-2.2,2-2.8,3.3c-0.6,1.3-0.9,3.1-0.9,5.5c0,4.7-0.2,8.4-0.7,11.1
			c-0.4,2.6-1.5,4.7-3.1,6.1c-1.6,1.5-4.1,2.2-7.5,2.2h-0.3c-0.4,0-0.8-0.1-1.1-0.4s-0.4-0.6-0.4-1.1v-0.9c0-0.4,0.1-0.8,0.4-1.1
			s0.6-0.4,1.1-0.4h0.3c2.2,0,3.9-0.6,4.9-1.7c1-1.1,1.6-2.8,1.9-5c0.3-2.2,0.4-5.6,0.4-10.3c0-2.6,0.4-4.7,1.2-6.4
			c0.8-1.7,2.1-3.1,3.8-4.1c-1.7-1-3-2.4-3.8-4.1c-0.8-1.7-1.2-3.8-1.2-6.4c0-4.6-0.1-8.1-0.4-10.3c-0.3-2.2-0.9-3.9-1.9-5
			s-2.6-1.7-4.9-1.7h-0.3c-0.4,0-0.8-0.1-1.1-0.4c-0.3-0.3-0.4-0.6-0.4-1.1v-0.9c0-0.4,0.1-0.8,0.4-1.1c0.3-0.3,0.6-0.4,1.1-0.4h0.3
			C-561.8,508.9-559.3,509.7-557.7,511.1z"/>
	</g>
	<g class="st0">
	</g>
	<g class="st0">
		<path class="st3" d="M-512,561.1l-14.1-29.6h7.5l11.9,26.3L-512,561.1z M-519.3,575l19.4-43.5h6.1l-19,43.5H-519.3z"/>
		<path class="st3" d="M-473.8,561.6c-3.4,0-6.2-0.7-8.7-2c-2.4-1.3-4.3-3.2-5.6-5.5c-1.3-2.3-2-5-2-8.1c0-2.9,0.7-5.5,2.2-7.9
			c1.5-2.4,3.4-4.3,5.9-5.7s5.2-2.1,8.2-2.1c3.9,0,7.1,1.1,9.7,3.4c2.6,2.3,4.3,5.4,5.2,9.4l-24.2,8.5l-1.6-3.9l19.9-7.2l-1.4,0.9
			c-0.6-1.6-1.5-2.9-2.8-4.1c-1.3-1.2-3.1-1.7-5.2-1.7c-1.8,0-3.4,0.4-4.8,1.3c-1.4,0.9-2.5,2.1-3.3,3.6c-0.8,1.5-1.2,3.2-1.2,5.2
			c0,2,0.4,3.8,1.3,5.4s2,2.7,3.5,3.6c1.5,0.9,3.2,1.3,5.1,1.3c1.3,0,2.5-0.2,3.7-0.7c1.2-0.5,2.3-1.1,3.4-1.8l3.1,4.9
			c-1.5,1-3.1,1.8-4.9,2.4C-470.2,561.3-472,561.6-473.8,561.6z"/>
		<path class="st3" d="M-450.5,506h6.6v55h-6.6V506z"/>
		<path class="st3" d="M-432.4,506h6.6v55h-6.6V506z"/>
		<path class="st3" d="M-417,545.9c0-2.9,0.7-5.6,2.1-8c1.4-2.4,3.3-4.2,5.8-5.6c2.5-1.4,5.3-2.1,8.4-2.1c3.2,0,6,0.7,8.4,2.1
			c2.4,1.4,4.3,3.2,5.6,5.6c1.3,2.4,2,5,2,8c0,2.9-0.7,5.6-2,8c-1.3,2.4-3.2,4.3-5.6,5.6c-2.4,1.4-5.3,2.1-8.5,2.1
			c-3.1,0-5.9-0.7-8.3-2c-2.4-1.3-4.4-3.1-5.8-5.5C-416.3,551.9-417,549.1-417,545.9z M-410.4,546c0,1.9,0.4,3.6,1.3,5.1
			c0.9,1.5,2,2.8,3.4,3.7c1.4,0.9,3,1.3,4.8,1.3c1.8,0,3.5-0.4,4.9-1.3c1.4-0.9,2.6-2.1,3.4-3.7c0.8-1.5,1.2-3.3,1.2-5.1
			c0-1.9-0.4-3.6-1.2-5.1c-0.8-1.5-1.9-2.8-3.4-3.7c-1.4-0.9-3.1-1.4-4.9-1.4c-1.8,0-3.4,0.5-4.9,1.4c-1.4,0.9-2.6,2.2-3.4,3.7
			S-410.4,544.2-410.4,546z"/>
		<path class="st3" d="M-357.8,531.5l8.7,19.8l-1.3,0.1l8.1-20h6.5l-13.5,31.2l-9.4-20.2l-8.6,20.2l-13.6-31.2h6.5l9.2,20.7
			l-2.3-0.4l6.5-15.2l-2.3-5.1H-357.8z"/>
	</g>
</g>
</svg>
